
<global>
ampeg_release=0.25
</global>

<group>
amp_veltrack=0
ampeg_release=0.35
group_label=Group

<region>
hikey=a#2
hivel=127
lokey=a2
lovel=1
offset=2608
pitch_keycenter=a#2
sample=Bass_scoop_FF_A#2.opus
</region>

<region>
hikey=a#3
hivel=127
lokey=a3
lovel=1
offset=2032
pitch_keycenter=a#3
sample=Bass_scoop_FF_A#3.opus
</region>

<region>
hikey=G5
hivel=127
lokey=a4
lovel=1
offset=4575
pitch_keycenter=A#4
sample=Bass_scoop_FF_A#4.opus
</region>

<region>
hikey=c3
hivel=127
lokey=b2
lovel=1
offset=1680
pitch_keycenter=c3
sample=Bass_scoop_FF_C3.opus
</region>

<region>
hikey=c4
hivel=127
lokey=b3
lovel=1
offset=1721
pitch_keycenter=c4
sample=Bass_scoop_FF_C4.opus
</region>

<region>
hikey=d3
hivel=127
lokey=c#3
lovel=1
offset=1733
pitch_keycenter=d3
sample=Bass_scoop_FF_D3.opus
</region>

<region>
hikey=d4
hivel=127
lokey=c#4
lovel=1
offset=2634
pitch_keycenter=d4
sample=Bass_scoop_FF_D4.opus
</region>

<region>
hikey=e3
hivel=127
lokey=d#3
lovel=1
offset=1198
pitch_keycenter=e3
sample=Bass_scoop_FF_E3.opus
</region>

<region>
hikey=e4
hivel=127
lokey=d#4
lovel=1
offset=3022
pitch_keycenter=e4
sample=Bass_scoop_FF_E4.opus
</region>

<region>
hivel=127
key=f#2
lovel=1
offset=8886
sample=Bass_scoop_FF_F#2.opus
</region>

<region>
hikey=f#3
hivel=127
lokey=f3
lovel=1
offset=1303
pitch_keycenter=f#3
sample=Bass_scoop_FF_F#3.opus
</region>

<region>
hikey=f#4
hivel=127
lokey=f4
lovel=1
offset=6914
pitch_keycenter=f#4
sample=Bass_scoop_FF_F#4.opus
</region>

<region>
hikey=g#2
hivel=127
lokey=g2
lovel=1
offset=2492
pitch_keycenter=g#2
sample=Bass_scoop_FF_G#2.opus
</region>

<region>
hikey=g#3
hivel=127
lokey=g3
lovel=1
offset=1271
pitch_keycenter=g#3
sample=Bass_scoop_FF_G#3.opus
</region>

<region>
hikey=g#4
hivel=127
lokey=g4
lovel=1
offset=1538
pitch_keycenter=g#4
sample=Bass_scoop_FF_G#4.opus
</region>
</group>